# xmcd
# 
# Track frame offsets:
#     150
#     41735
#     91142
#     128160
# 
# Disc length: 2392
# 
# Revision: 1
# Processed by: cddbd v1.5.2PL0 Copyright (c) Steve Scherf et al.
# Submitted via: BonkEnc v1.0.6
# 
DISCID=2b095604
DTITLE=George Adams - Hand to Hand
DYEAR=1980
DGENRE=Jazz
TTITLE0=The Cloocker
TTITLE1=Yamani's Passion
TTITLE2=For Dee J
TTITLE3=Joobubie
EXTD=
EXTT0=
EXTT1=
EXTT2=
EXTT3=
PLAYORDER=
